<svg width="36" height="29" viewBox="0 0 36 29" fill="none" xmlns="http://www.w3.org/2000/svg">
<path d="M36 9.35086V25.7045C36 26.6108 35.6853 27.3866 35.0558 28.032C34.4264 28.6773 33.6696 29 32.7857 29H3.21429C2.33036 29 1.57366 28.6773 0.944196 28.032C0.314732 27.3866 0 26.6108 0 25.7045V9.35086C0.589286 10.0237 1.26563 10.621 2.02902 11.1428C6.87724 14.5206 10.2054 16.8892 12.0134 18.2486C12.7768 18.8253 13.3962 19.275 13.8716 19.5977C14.3471 19.9203 14.9799 20.2499 15.7701 20.5863C16.5603 20.9227 17.2969 21.0909 17.9799 21.0909H18.0201C18.7031 21.0909 19.4397 20.9227 20.2299 20.5863C21.0201 20.2499 21.6529 19.9203 22.1284 19.5977C22.6038 19.275 23.2232 18.8253 23.9866 18.2486C26.2634 16.5596 29.5982 14.191 33.9911 11.1428C34.7545 10.6073 35.4241 10.01 36 9.35086ZM36 3.29546C36 4.38022 35.6719 5.41691 35.0156 6.40554C34.3594 7.39417 33.5424 8.23863 32.5647 8.93892C27.529 12.5227 24.3951 14.754 23.1629 15.6328C23.0289 15.729 22.7443 15.9384 22.3091 16.261C21.8739 16.5837 21.5123 16.8446 21.2243 17.0437C20.9364 17.2428 20.5882 17.4659 20.1797 17.7131C19.7712 17.9602 19.3862 18.1456 19.0246 18.2692C18.6629 18.3928 18.3281 18.4546 18.0201 18.4546H17.9799C17.6719 18.4546 17.3371 18.3928 16.9754 18.2692C16.6138 18.1455 16.2288 17.9602 15.8203 17.7131C15.4118 17.4659 15.0636 17.2428 14.7757 17.0437C14.4877 16.8446 14.1261 16.5837 13.6909 16.261C13.2556 15.9383 12.971 15.7289 12.8371 15.6328C11.6183 14.754 9.86383 13.5011 7.57365 11.8739C5.28347 10.2468 3.91071 9.26846 3.45537 8.93892C2.625 8.36222 1.84152 7.56925 1.10491 6.56001C0.368304 5.55077 0 4.61363 0 3.74858C0 2.67756 0.277902 1.78504 0.833706 1.07101C1.38951 0.357003 2.18304 0 3.21429 0H32.7857C33.6562 0 34.4096 0.322678 35.0458 0.968033C35.6819 1.61339 36 2.3892 36 3.29546Z" fill="#E0E0EC"/>
</svg>
